-------- MisiSeqMS Start -------
File:C:\Users\patch\OneDrive\Documents\VisualStudio2022\Projects\MidiSeqMS\MusicStudioSongFiles\MusicStudio\PRELUDE.SNG has 2714 Bytes
Note Off:4 Note On:4 Event:1 Delta:0 InQueue:2
Note Off:4 Note On:4 Event:3 Delta:0 InQueue:4
Note Off:4 Note On:4 Event:4 Delta:0 InQueue:1
Note Off:5 Note On:5 Event:5 Delta:0 InQueue:1
Note Off:6 Note On:6 Event:6 Delta:0 InQueue:1
Note Off:7 Note On:7 Event:7 Delta:0 InQueue:1
Note Off:8 Note On:8 Event:8 Delta:0 InQueue:1
Note Off:9 Note On:9 Event:9 Delta:0 InQueue:1
Note Off:10 Note On:10 Event:10 Delta:0 InQueue:1
Note Off:11 Note On:11 Event:11 Delta:0 InQueue:1
Note Off:12 Note On:12 Event:12 Delta:0 InQueue:1
Note Off:13 Note On:13 Event:13 Delta:0 InQueue:1
Note Off:14 Note On:14 Event:14 Delta:0 InQueue:1
Note Off:15 Note On:15 Event:15 Delta:0 InQueue:1
Note Off:16 Note On:16 Event:16 Delta:0 InQueue:1
Note Off:17 Note On:17 Event:17 Delta:0 InQueue:1
Note Off:18 Note On:18 Event:18 Delta:0 InQueue:1
Note Off:19 Note On:19 Event:19 Delta:0 InQueue:1
Note Off:20 Note On:20 Event:20 Delta:0 InQueue:1
Note Off:21 Note On:21 Event:21 Delta:0 InQueue:1
Note Off:22 Note On:22 Event:22 Delta:0 InQueue:1
Note Off:23 Note On:23 Event:23 Delta:0 InQueue:1
Note Off:24 Note On:24 Event:24 Delta:0 InQueue:2
Note Off:25 Note On:26 Event:25 Delta:1 InQueue:2
Note Off:26 Note On:27 Event:26 Delta:1 InQueue:2
Note Off:27 Note On:28 Event:27 Delta:1 InQueue:2
Note Off:29 Note On:29 Event:28 Delta:0 InQueue:2
Note Off:31 Note On:31 Event:29 Delta:0 InQueue:2
Note Off:33 Note On:33 Event:30 Delta:0 InQueue:2
Note Off:34 Note On:35 Event:31 Delta:1 InQueue:2
Note Off:36 Note On:36 Event:32 Delta:0 InQueue:2
Note Off:38 Note On:38 Event:33 Delta:0 InQueue:2
Note Off:40 Note On:40 Event:34 Delta:0 InQueue:2
Note Off:42 Note On:42 Event:35 Delta:0 InQueue:2
Note Off:44 Note On:44 Event:36 Delta:0 InQueue:2
Note Off:46 Note On:46 Event:37 Delta:0 InQueue:2
Note Off:48 Note On:48 Event:38 Delta:0 InQueue:2
Note Off:50 Note On:50 Event:39 Delta:0 InQueue:2
Note Off:52 Note On:52 Event:40 Delta:0 InQueue:2
Note Off:53 Note On:54 Event:41 Delta:1 InQueue:2
Note Off:55 Note On:55 Event:42 Delta:0 InQueue:2
Note Off:57 Note On:57 Event:43 Delta:0 InQueue:2
Note Off:59 Note On:59 Event:44 Delta:0 InQueue:2
Note Off:60 Note On:61 Event:45 Delta:1 InQueue:2
Note Off:62 Note On:62 Event:46 Delta:0 InQueue:2
Note Off:64 Note On:64 Event:47 Delta:0 InQueue:2
Note Off:66 Note On:66 Event:48 Delta:0 InQueue:2
Note Off:67 Note On:68 Event:49 Delta:1 InQueue:2
Note Off:69 Note On:69 Event:50 Delta:0 InQueue:2
Note Off:70 Note On:71 Event:51 Delta:1 InQueue:2
Note Off:72 Note On:72 Event:52 Delta:0 InQueue:2
Note Off:74 Note On:74 Event:53 Delta:0 InQueue:2
Note Off:75 Note On:76 Event:54 Delta:1 InQueue:2
Note Off:77 Note On:77 Event:55 Delta:0 InQueue:2
Note Off:79 Note On:79 Event:56 Delta:0 InQueue:2
Note Off:81 Note On:81 Event:57 Delta:0 InQueue:2
Note Off:83 Note On:83 Event:58 Delta:0 InQueue:2
Note Off:85 Note On:85 Event:59 Delta:0 InQueue:2
Note Off:86 Note On:87 Event:60 Delta:1 InQueue:2
Note Off:88 Note On:88 Event:61 Delta:0 InQueue:2
Note Off:90 Note On:90 Event:62 Delta:0 InQueue:2
Note Off:92 Note On:92 Event:63 Delta:0 InQueue:2
Note Off:94 Note On:94 Event:64 Delta:0 InQueue:2
Note Off:96 Note On:96 Event:65 Delta:0 InQueue:2
Note Off:98 Note On:98 Event:66 Delta:0 InQueue:2
Note Off:100 Note On:100 Event:67 Delta:0 InQueue:2
Note Off:102 Note On:102 Event:68 Delta:0 InQueue:2
Note Off:104 Note On:104 Event:69 Delta:0 InQueue:2
Note Off:106 Note On:106 Event:70 Delta:0 InQueue:2
Note Off:108 Note On:108 Event:71 Delta:0 InQueue:2
Note Off:110 Note On:110 Event:72 Delta:0 InQueue:2
Note Off:111 Note On:112 Event:73 Delta:1 InQueue:2
Note Off:113 Note On:113 Event:74 Delta:0 InQueue:2
Note Off:115 Note On:115 Event:75 Delta:0 InQueue:2
Note Off:117 Note On:117 Event:76 Delta:0 InQueue:2
Note Off:118 Note On:119 Event:77 Delta:1 InQueue:2
Note Off:120 Note On:120 Event:78 Delta:0 InQueue:2
Note Off:122 Note On:122 Event:79 Delta:0 InQueue:2
Note Off:124 Note On:124 Event:80 Delta:0 InQueue:2
Note Off:125 Note On:126 Event:81 Delta:1 InQueue:2
Note Off:127 Note On:127 Event:82 Delta:0 InQueue:2
Note Off:128 Note On:129 Event:83 Delta:1 InQueue:2
Note Off:130 Note On:130 Event:84 Delta:0 InQueue:2
Note Off:132 Note On:132 Event:85 Delta:0 InQueue:2
Note Off:133 Note On:134 Event:86 Delta:1 InQueue:2
Note Off:135 Note On:135 Event:87 Delta:0 InQueue:2
Note Off:137 Note On:137 Event:88 Delta:0 InQueue:2
Note Off:139 Note On:139 Event:89 Delta:0 InQueue:2
Note Off:141 Note On:141 Event:90 Delta:0 InQueue:2
Note Off:143 Note On:143 Event:91 Delta:0 InQueue:2
Note Off:145 Note On:145 Event:92 Delta:0 InQueue:2
Note Off:147 Note On:147 Event:93 Delta:0 InQueue:2
Note Off:149 Note On:149 Event:94 Delta:0 InQueue:2
Note Off:151 Note On:151 Event:95 Delta:0 InQueue:2
Note Off:153 Note On:153 Event:96 Delta:0 InQueue:2
Note Off:155 Note On:155 Event:97 Delta:0 InQueue:2
Note Off:157 Note On:157 Event:98 Delta:0 InQueue:2
Note Off:159 Note On:159 Event:99 Delta:0 InQueue:2
Note Off:161 Note On:161 Event:100 Delta:0 InQueue:2
Note Off:163 Note On:163 Event:101 Delta:0 InQueue:2
Note Off:165 Note On:165 Event:102 Delta:0 InQueue:2
Note Off:167 Note On:167 Event:103 Delta:0 InQueue:2
Note Off:169 Note On:169 Event:104 Delta:0 InQueue:2
Note Off:171 Note On:171 Event:105 Delta:0 InQueue:2
Note Off:173 Note On:173 Event:106 Delta:0 InQueue:2
Note Off:175 Note On:175 Event:107 Delta:0 InQueue:2
Note Off:177 Note On:177 Event:108 Delta:0 InQueue:2
Note Off:179 Note On:179 Event:109 Delta:0 InQueue:2
Note Off:181 Note On:181 Event:110 Delta:0 InQueue:2
Note Off:183 Note On:183 Event:111 Delta:0 InQueue:2
Note Off:185 Note On:185 Event:112 Delta:0 InQueue:2
Note Off:187 Note On:187 Event:113 Delta:0 InQueue:2
Note Off:189 Note On:189 Event:114 Delta:0 InQueue:2
Note Off:191 Note On:191 Event:115 Delta:0 InQueue:2
Note Off:193 Note On:193 Event:116 Delta:0 InQueue:2
Note Off:194 Note On:195 Event:117 Delta:1 InQueue:2
Note Off:196 Note On:196 Event:118 Delta:0 InQueue:2
Note Off:198 Note On:198 Event:119 Delta:0 InQueue:2
Note Off:200 Note On:200 Event:120 Delta:0 InQueue:3
Note Off:201 Note On:202 Event:121 Delta:1 InQueue:3
Note Off:202 Note On:204 Event:122 Delta:2 InQueue:3
Note Off:205 Note On:205 Event:123 Delta:0 InQueue:2
Note Off:206 Note On:207 Event:124 Delta:1 InQueue:2
Note Off:208 Note On:208 Event:125 Delta:0 InQueue:2
Note Off:209 Note On:210 Event:126 Delta:1 InQueue:2
Note Off:211 Note On:211 Event:127 Delta:0 InQueue:2
Note Off:212 Note On:213 Event:128 Delta:1 InQueue:2
Note Off:214 Note On:214 Event:129 Delta:0 InQueue:2
Note Off:215 Note On:216 Event:130 Delta:1 InQueue:2
Note Off:217 Note On:217 Event:131 Delta:0 InQueue:2
Note Off:218 Note On:219 Event:132 Delta:1 InQueue:2
Note Off:220 Note On:220 Event:133 Delta:0 InQueue:2
Note Off:221 Note On:222 Event:134 Delta:1 InQueue:2
Note Off:223 Note On:223 Event:135 Delta:0 InQueue:2
Note Off:224 Note On:225 Event:136 Delta:1 InQueue:2
Note Off:226 Note On:226 Event:137 Delta:0 InQueue:2
Note Off:227 Note On:228 Event:138 Delta:1 InQueue:2
Note Off:229 Note On:229 Event:139 Delta:0 InQueue:2
Note Off:230 Note On:231 Event:140 Delta:1 InQueue:2
Note Off:232 Note On:232 Event:141 Delta:0 InQueue:2
Note Off:233 Note On:234 Event:142 Delta:1 InQueue:2
Note Off:235 Note On:235 Event:143 Delta:0 InQueue:2
Note Off:236 Note On:237 Event:144 Delta:1 InQueue:2
Note Off:238 Note On:238 Event:145 Delta:0 InQueue:2
Note Off:239 Note On:240 Event:146 Delta:1 InQueue:2
Note Off:241 Note On:241 Event:147 Delta:0 InQueue:2
Note Off:243 Note On:243 Event:148 Delta:0 InQueue:2
Note Off:245 Note On:245 Event:149 Delta:0 InQueue:2
Note Off:246 Note On:247 Event:150 Delta:1 InQueue:3
Note Off:247 Note On:248 Event:151 Delta:1 InQueue:3
Note Off:248 Note On:249 Event:152 Delta:1 InQueue:3
Note Off:249 Note On:250 Event:153 Delta:1 InQueue:3
Note Off:250 Note On:251 Event:154 Delta:1 InQueue:3
Note Off:252 Note On:252 Event:155 Delta:0 InQueue:3
Note Off:253 Note On:254 Event:156 Delta:1 InQueue:2
Note Off:254 Note On:255 Event:157 Delta:1 InQueue:2
Note Off:255 Note On:256 Event:158 Delta:1 InQueue:2
Note Off:257 Note On:257 Event:159 Delta:0 InQueue:2
Note Off:258 Note On:259 Event:160 Delta:1 InQueue:2
Note Off:259 Note On:260 Event:161 Delta:1 InQueue:3
Note Off:260 Note On:261 Event:162 Delta:1 InQueue:4
Note Off:261 Note On:263 Event:163 Delta:2 InQueue:4
Note Off:262 Note On:264 Event:164 Delta:2 InQueue:4
Note Off:263 Note On:265 Event:165 Delta:2 InQueue:3
Note Off:264 Note On:266 Event:166 Delta:2 InQueue:3
Note Off:265 Note On:267 Event:167 Delta:2 InQueue:3
Note Off:266 Note On:268 Event:168 Delta:2 InQueue:3
Note Off:267 Note On:269 Event:169 Delta:2 InQueue:3
Note Off:270 Note On:270 Event:170 Delta:0 InQueue:2
Tie Note Start
Note Off:271 Note On:272 Event:171 Delta:1 InQueue:2
Note Off:272 Note On:273 Event:172 Delta:1 InQueue:2
Note Off:273 Note On:274 Event:173 Delta:1 InQueue:2
Note Off:274 Note On:275 Event:174 Delta:1 InQueue:2
Note Off:275 Note On:276 Event:175 Delta:1 InQueue:2
Note Off:276 Note On:277 Event:176 Delta:1 InQueue:2
Note Off:277 Note On:278 Event:177 Delta:1 InQueue:2
Note Off:278 Note On:279 Event:178 Delta:1 InQueue:2
Note Off:279 Note On:280 Event:179 Delta:1 InQueue:2
Note Off:280 Note On:281 Event:180 Delta:1 InQueue:2
Note Off:281 Note On:282 Event:181 Delta:1 InQueue:2
Note Off:283 Note On:283 Event:182 Delta:0 InQueue:2
Note Off:284 Note On:284 Event:183 Delta:0 InQueue:2
Note Off:285 Note On:285 Event:184 Delta:0 InQueue:2
Note Off:286 Note On:286 Event:185 Delta:0 InQueue:2
Note Off:287 Note On:287 Event:186 Delta:0 InQueue:2
Note Off:288 Note On:288 Event:187 Delta:0 InQueue:2
Note Off:289 Note On:289 Event:188 Delta:0 InQueue:2
Note Off:290 Note On:290 Event:189 Delta:0 InQueue:2
Note Off:291 Note On:291 Event:190 Delta:0 InQueue:2
Note Off:292 Note On:292 Event:191 Delta:0 InQueue:2
Note Off:293 Note On:293 Event:192 Delta:0 InQueue:2
Note Off:294 Note On:294 Event:193 Delta:0 InQueue:2
Note Off:296 Note On:295 Event:194 Delta:-1 InQueue:2
Note Off:297 Note On:297 Event:195 Delta:0 InQueue:2
Note Off:298 Note On:298 Event:196 Delta:0 InQueue:2
Note Off:299 Note On:299 Event:197 Delta:0 InQueue:2
Note Off:301 Note On:300 Event:198 Delta:-1 InQueue:2
Note Off:303 Note On:302 Event:199 Delta:-1 InQueue:2
Note Off:304 Note On:304 Event:200 Delta:0 InQueue:2
Note Off:305 Note On:305 Event:201 Delta:0 InQueue:2
Note Off:307 Note On:306 Event:202 Delta:-1 InQueue:2
Note Off:309 Note On:308 Event:203 Delta:-1 InQueue:2
Note Off:311 Note On:310 Event:204 Delta:-1 InQueue:2
Note Off:313 Note On:312 Event:205 Delta:-1 InQueue:2
Note Off:314 Note On:314 Event:206 Delta:0 InQueue:2
Note Off:316 Note On:315 Event:207 Delta:-1 InQueue:2
Note Off:317 Note On:317 Event:208 Delta:0 InQueue:2
Note Off:319 Note On:318 Event:209 Delta:-1 InQueue:2
Note Off:320 Note On:320 Event:210 Delta:0 InQueue:2
Note Off:322 Note On:321 Event:211 Delta:-1 InQueue:2
Note Off:324 Note On:323 Event:212 Delta:-1 InQueue:2
Note Off:326 Note On:325 Event:213 Delta:-1 InQueue:2
Note Off:327 Note On:327 Event:214 Delta:0 InQueue:3
Note Off:329 Note On:329 Event:215 Delta:0 InQueue:3
Note Off:331 Note On:331 Event:216 Delta:0 InQueue:4
Note Off:333 Note On:334 Event:217 Delta:1 InQueue:4
Note Off:335 Note On:336 Event:218 Delta:1 InQueue:4
Note Off:337 Note On:338 Event:219 Delta:1 InQueue:4
Note Off:339 Note On:340 Event:220 Delta:1 InQueue:4
Note Off:343 Note On:342 Event:221 Delta:-1 InQueue:3
Note Off:346 Note On:345 Event:222 Delta:-1 InQueue:3
Note Off:349 Note On:348 Event:223 Delta:-1 InQueue:3
Note Off:352 Note On:351 Event:224 Delta:-1 InQueue:3
Note Off:355 Note On:354 Event:225 Delta:-1 InQueue:3
Note Off:358 Note On:357 Event:226 Delta:-1 InQueue:3
Note Off:361 Note On:360 Event:227 Delta:-1 InQueue:3
Note Off:364 Note On:363 Event:228 Delta:-1 InQueue:3
Note Off:367 Note On:366 Event:229 Delta:-1 InQueue:3
Note Off:370 Note On:369 Event:230 Delta:-1 InQueue:2
Note Off:372 Note On:371 Event:231 Delta:-1 InQueue:2
Note Off:374 Note On:373 Event:232 Delta:-1 InQueue:2
Note Off:375 Note On:375 Event:233 Delta:0 InQueue:2
Note Off:377 Note On:376 Event:234 Delta:-1 InQueue:2
Note Off:378 Note On:378 Event:235 Delta:0 InQueue:2
Note Off:380 Note On:379 Event:236 Delta:-1 InQueue:2
Note Off:381 Note On:381 Event:237 Delta:0 InQueue:2
Note Off:383 Note On:382 Event:238 Delta:-1 InQueue:2
Note Off:385 Note On:384 Event:239 Delta:-1 InQueue:2
Note Off:387 Note On:386 Event:240 Delta:-1 InQueue:2
Note Off:388 Note On:388 Event:241 Delta:0 InQueue:2
Note Off:389 Note On:389 Event:242 Delta:0 InQueue:2
Note Off:390 Note On:390 Event:243 Delta:0 InQueue:3
Note Off:391 Note On:392 Event:244 Delta:1 InQueue:3
Note Off:394 Note On:393 Event:245 Delta:-1 InQueue:3
Note Off:395 Note On:396 Event:246 Delta:1 InQueue:3
Note Off:396 Note On:397 Event:247 Delta:1 InQueue:3
Note Off:399 Note On:398 Event:248 Delta:-1 InQueue:2
Note Off:400 Note On:400 Event:249 Delta:0 InQueue:3
Note Off:402 Note On:402 Event:250 Delta:0 InQueue:3
Note Off:404 Note On:404 Event:251 Delta:0 InQueue:4
Tie Note Start
Note Off:406 Note On:407 Event:252 Delta:1 InQueue:4
Note Off:408 Note On:409 Event:253 Delta:1 InQueue:4
Note Off:410 Note On:411 Event:254 Delta:1 InQueue:4
Note Off:412 Note On:413 Event:255 Delta:1 InQueue:4
Note Off:416 Note On:415 Event:257 Delta:-1 InQueue:2
Note Off:417 Note On:416 Event:258 Delta:-1 InQueue:2
Note Off:418 Note On:417 Event:259 Delta:-1 InQueue:2
Note Off:419 Note On:418 Event:260 Delta:-1 InQueue:4
Note Off:419 Note On:420 Event:261 Delta:1 InQueue:4
Note Off:420 Note On:421 Event:262 Delta:1 InQueue:4
Note Off:424 Note On:422 Event:263 Delta:-2 InQueue:2
Tie Note Start
Note Off:425 Note On:424 Event:264 Delta:-1 InQueue:2
Note Off:426 Note On:425 Event:265 Delta:-1 InQueue:2
Note Off:428 Note On:426 Event:266 Delta:-2 InQueue:3
Note Off:428 Note On:427 Event:267 Delta:-1 InQueue:3
Note Off:429 Note On:428 Event:268 Delta:-1 InQueue:3
Note Off:432 Note On:429 Event:269 Delta:-3 InQueue:2
Note Off:433 Note On:431 Event:270 Delta:-2 InQueue:2
Note Off:434 Note On:432 Event:271 Delta:-2 InQueue:2
Note Off:435 Note On:433 Event:272 Delta:-2 InQueue:3
Note Off:435 Note On:434 Event:273 Delta:-1 InQueue:3
Note Off:436 Note On:435 Event:274 Delta:-1 InQueue:3
Note Off:439 Note On:436 Event:275 Delta:-3 InQueue:3
Note Off:440 Note On:438 Event:276 Delta:-2 InQueue:3
Note Off:442 Note On:440 Event:277 Delta:-2 InQueue:3
Note Off:445 Note On:442 Event:278 Delta:-3 InQueue:3
Note Off:445 Note On:444 Event:279 Delta:-1 InQueue:3
Note Off:446 Note On:445 Event:280 Delta:-1 InQueue:3
Note Off:449 Note On:446 Event:281 Delta:-3 InQueue:3
Note Off:450 Note On:449 Event:282 Delta:-1 InQueue:3
Note Off:451 Note On:450 Event:283 Delta:-1 InQueue:3
Note Off:454 Note On:451 Event:284 Delta:-3 InQueue:3
Note Off:454 Note On:453 Event:285 Delta:-1 InQueue:3
Note Off:455 Note On:454 Event:286 Delta:-1 InQueue:3
Note Off:458 Note On:455 Event:287 Delta:-3 InQueue:3
Note Off:459 Note On:458 Event:288 Delta:-1 InQueue:3
Note Off:460 Note On:459 Event:289 Delta:-1 InQueue:3
Note Off:463 Note On:460 Event:290 Delta:-3 InQueue:3
Note Off:464 Note On:462 Event:291 Delta:-2 InQueue:3
Note Off:465 Note On:464 Event:292 Delta:-1 InQueue:3
Note Off:468 Note On:465 Event:293 Delta:-3 InQueue:3
Note Off:468 Note On:467 Event:294 Delta:-1 InQueue:4
Note Off:469 Note On:469 Event:295 Delta:0 InQueue:4
Note Off:473 Note On:470 Event:296 Delta:-3 InQueue:3
Note Off:473 Note On:472 Event:297 Delta:-1 InQueue:3
Note Off:474 Note On:473 Event:298 Delta:-1 InQueue:3
Note Off:477 Note On:474 Event:299 Delta:-3 InQueue:2
Note Off:478 Note On:476 Event:300 Delta:-2 InQueue:2
Note Off:479 Note On:477 Event:301 Delta:-2 InQueue:2
Note Off:481 Note On:478 Event:302 Delta:-3 InQueue:3
Note Off:481 Note On:480 Event:303 Delta:-1 InQueue:3
Note Off:482 Note On:481 Event:304 Delta:-1 InQueue:3
Note Off:485 Note On:482 Event:305 Delta:-3 InQueue:3
Note Off:486 Note On:485 Event:306 Delta:-1 InQueue:3
Note Off:487 Note On:486 Event:307 Delta:-1 InQueue:3
Note Off:489 Note On:487 Event:308 Delta:-2 InQueue:4
Note Off:489 Note On:489 Event:309 Delta:0 InQueue:4
Note Off:490 Note On:490 Event:310 Delta:0 InQueue:4
Note Off:494 Note On:491 Event:311 Delta:-3 InQueue:3
Note Off:495 Note On:494 Event:312 Delta:-1 InQueue:3
Note Off:496 Note On:495 Event:313 Delta:-1 InQueue:3
Note Off:499 Note On:496 Event:314 Delta:-3 InQueue:2
Note Off:499 Note On:497 Event:315 Delta:-2 InQueue:2
Note Off:500 Note On:498 Event:316 Delta:-2 InQueue:2
Note Off:502 Note On:499 Event:317 Delta:-3 InQueue:2
Note Off:502 Note On:500 Event:318 Delta:-2 InQueue:2
Note Off:503 Note On:501 Event:319 Delta:-2 InQueue:2
Note Off:505 Note On:502 Event:320 Delta:-3 InQueue:2
Note Off:505 Note On:503 Event:321 Delta:-2 InQueue:2
Note Off:506 Note On:504 Event:322 Delta:-2 InQueue:2
Note Off:508 Note On:505 Event:323 Delta:-3 InQueue:2
Note Off:508 Note On:506 Event:324 Delta:-2 InQueue:2
Note Off:509 Note On:507 Event:325 Delta:-2 InQueue:2
Note Off:511 Note On:508 Event:326 Delta:-3 InQueue:2
Note Off:511 Note On:509 Event:327 Delta:-2 InQueue:3
Note Off:513 Note On:511 Event:328 Delta:-2 InQueue:3
Note Off:516 Note On:513 Event:329 Delta:-3 InQueue:3
Note Off:516 Note On:515 Event:330 Delta:-1 InQueue:4
Note Off:518 Note On:517 Event:331 Delta:-1 InQueue:4
Note Off:522 Note On:519 Event:332 Delta:-3 InQueue:2
Note Off:524 Note On:521 Event:333 Delta:-3 InQueue:2
Note Off:526 Note On:523 Event:334 Delta:-3 InQueue:2
Note Off:528 Note On:525 Event:335 Delta:-3 InQueue:3
Note Off:528 Note On:527 Event:336 Delta:-1 InQueue:4
Note Off:530 Note On:529 Event:337 Delta:-1 InQueue:4
Note Off:534 Note On:531 Event:338 Delta:-3 InQueue:2
Note Off:536 Note On:533 Event:339 Delta:-3 InQueue:2
Note Off:538 Note On:535 Event:340 Delta:-3 InQueue:2
Note Off:540 Note On:537 Event:341 Delta:-3 InQueue:2
Note Off:542 Note On:539 Event:342 Delta:-3 InQueue:2
Note Off:544 Note On:541 Event:343 Delta:-3 InQueue:2
Note Off:546 Note On:543 Event:344 Delta:-3 InQueue:3
Note Off:546 Note On:545 Event:346 Delta:-1 InQueue:3
Note Off:548 Note On:546 Event:347 Delta:-2 InQueue:2
Note Off:550 Note On:547 Event:348 Delta:-3 InQueue:2
Note Off:551 Note On:549 Event:349 Delta:-2 InQueue:2
Note Off:553 Note On:550 Event:350 Delta:-3 InQueue:2
Note Off:554 Note On:552 Event:351 Delta:-2 InQueue:2
Note Off:555 Note On:553 Event:352 Delta:-2 InQueue:2
Note Off:556 Note On:554 Event:353 Delta:-2 InQueue:2
Note Off:557 Note On:555 Event:354 Delta:-2 InQueue:2
Note Off:558 Note On:556 Event:355 Delta:-2 InQueue:2
Note Off:559 Note On:557 Event:356 Delta:-2 InQueue:3
Note Off:560 Note On:559 Event:357 Delta:-1 InQueue:3
Note Off:561 Note On:560 Event:358 Delta:-1 InQueue:3
Note Off:562 Note On:561 Event:359 Delta:-1 InQueue:3
Note Off:564 Note On:562 Event:360 Delta:-2 InQueue:3
Note Off:565 Note On:564 Event:361 Delta:-1 InQueue:3
Note Off:566 Note On:565 Event:362 Delta:-1 InQueue:3
Note Off:567 Note On:566 Event:363 Delta:-1 InQueue:3
Note Off:568 Note On:567 Event:364 Delta:-1 InQueue:3
Note Off:569 Note On:568 Event:365 Delta:-1 InQueue:3
Note Off:570 Note On:569 Event:366 Delta:-1 InQueue:3
Note Off:571 Note On:570 Event:367 Delta:-1 InQueue:3
Note Off:572 Note On:571 Event:368 Delta:-1 InQueue:3
Note Off:573 Note On:572 Event:369 Delta:-1 InQueue:3
Note Off:574 Note On:573 Event:370 Delta:-1 InQueue:3
Note Off:575 Note On:574 Event:371 Delta:-1 InQueue:3
Note Off:577 Note On:575 Event:372 Delta:-2 InQueue:3
Note Off:578 Note On:577 Event:373 Delta:-1 InQueue:3
Note Off:579 Note On:578 Event:374 Delta:-1 InQueue:3
Note Off:581 Note On:579 Event:375 Delta:-2 InQueue:4
------ Exit MidiSeqMS-------
